<mxfile host="Electron" modified="2024-08-04T13:15:46.608Z" agent="Mozilla/5.0 (X11; Linux x86_64) AppleWebKit/537.36 (KHTML, like Gecko) draw.io/24.4.8 Chrome/124.0.6367.233 Electron/30.0.9 Safari/537.36" etag="KUWLSIZPKP4HvJ8MECq7" version="24.4.8" type="device">
  <diagram name="Page-1" id="Fqot9kZ-3FXe23qQJQpU">
    <mxGraphModel dx="768" dy="452" grid="1" gridSize="10" guides="1" tooltips="1" connect="1" arrows="1" fold="1" page="1" pageScale="1" pageWidth="850" pageHeight="1100" math="0" shadow="0">
      <root>
        <mxCell id="0" />
        <mxCell id="1" parent="0" />
        <mxCell id="tTaFKLzFF_VWdB-BSlma-3" style="edgeStyle=orthogonalEdgeStyle;rounded=0;orthogonalLoop=1;jettySize=auto;html=1;exitX=1;exitY=0.5;exitDx=0;exitDy=0;entryX=0;entryY=0.5;entryDx=0;entryDy=0;" edge="1" parent="1" source="tTaFKLzFF_VWdB-BSlma-1" target="tTaFKLzFF_VWdB-BSlma-2">
          <mxGeometry relative="1" as="geometry" />
        </mxCell>
        <mxCell id="tTaFKLzFF_VWdB-BSlma-6" style="edgeStyle=orthogonalEdgeStyle;rounded=0;orthogonalLoop=1;jettySize=auto;html=1;exitX=0.5;exitY=1;exitDx=0;exitDy=0;entryX=0;entryY=0.5;entryDx=0;entryDy=0;" edge="1" parent="1" source="tTaFKLzFF_VWdB-BSlma-1" target="tTaFKLzFF_VWdB-BSlma-4">
          <mxGeometry relative="1" as="geometry" />
        </mxCell>
        <mxCell id="tTaFKLzFF_VWdB-BSlma-15" style="edgeStyle=orthogonalEdgeStyle;rounded=0;orthogonalLoop=1;jettySize=auto;html=1;exitX=0.5;exitY=1;exitDx=0;exitDy=0;entryX=0;entryY=0.5;entryDx=0;entryDy=0;dashed=1;" edge="1" parent="1" source="tTaFKLzFF_VWdB-BSlma-1" target="tTaFKLzFF_VWdB-BSlma-14">
          <mxGeometry relative="1" as="geometry" />
        </mxCell>
        <mxCell id="tTaFKLzFF_VWdB-BSlma-1" value="Version 1" style="rounded=1;whiteSpace=wrap;html=1;strokeColor=#3333FF;" vertex="1" parent="1">
          <mxGeometry x="190" y="220" width="80" height="30" as="geometry" />
        </mxCell>
        <mxCell id="tTaFKLzFF_VWdB-BSlma-16" style="edgeStyle=orthogonalEdgeStyle;rounded=0;orthogonalLoop=1;jettySize=auto;html=1;exitX=0.5;exitY=1;exitDx=0;exitDy=0;entryX=0;entryY=0.5;entryDx=0;entryDy=0;" edge="1" parent="1" source="tTaFKLzFF_VWdB-BSlma-2" target="tTaFKLzFF_VWdB-BSlma-14">
          <mxGeometry relative="1" as="geometry" />
        </mxCell>
        <mxCell id="tTaFKLzFF_VWdB-BSlma-18" style="edgeStyle=orthogonalEdgeStyle;rounded=0;orthogonalLoop=1;jettySize=auto;html=1;exitX=1;exitY=0.5;exitDx=0;exitDy=0;entryX=0;entryY=0.5;entryDx=0;entryDy=0;" edge="1" parent="1" source="tTaFKLzFF_VWdB-BSlma-2" target="tTaFKLzFF_VWdB-BSlma-17">
          <mxGeometry relative="1" as="geometry" />
        </mxCell>
        <mxCell id="tTaFKLzFF_VWdB-BSlma-2" value="Version 2" style="rounded=1;whiteSpace=wrap;html=1;strokeColor=#3333FF;" vertex="1" parent="1">
          <mxGeometry x="470" y="220" width="80" height="30" as="geometry" />
        </mxCell>
        <mxCell id="tTaFKLzFF_VWdB-BSlma-8" style="edgeStyle=orthogonalEdgeStyle;rounded=0;orthogonalLoop=1;jettySize=auto;html=1;exitX=1;exitY=0.5;exitDx=0;exitDy=0;entryX=0;entryY=0.5;entryDx=0;entryDy=0;" edge="1" parent="1" source="tTaFKLzFF_VWdB-BSlma-4" target="tTaFKLzFF_VWdB-BSlma-7">
          <mxGeometry relative="1" as="geometry" />
        </mxCell>
        <mxCell id="tTaFKLzFF_VWdB-BSlma-4" value="New feature" style="rounded=1;whiteSpace=wrap;html=1;strokeColor=#FFFF00;" vertex="1" parent="1">
          <mxGeometry x="250" y="280" width="80" height="30" as="geometry" />
        </mxCell>
        <mxCell id="tTaFKLzFF_VWdB-BSlma-10" style="edgeStyle=orthogonalEdgeStyle;rounded=0;orthogonalLoop=1;jettySize=auto;html=1;exitX=1;exitY=0.5;exitDx=0;exitDy=0;entryX=0;entryY=0.5;entryDx=0;entryDy=0;" edge="1" parent="1" source="tTaFKLzFF_VWdB-BSlma-7" target="tTaFKLzFF_VWdB-BSlma-2">
          <mxGeometry relative="1" as="geometry" />
        </mxCell>
        <mxCell id="tTaFKLzFF_VWdB-BSlma-7" value="Feature finished" style="rounded=1;whiteSpace=wrap;html=1;strokeColor=#FFFF00;" vertex="1" parent="1">
          <mxGeometry x="350" y="280" width="80" height="30" as="geometry" />
        </mxCell>
        <mxCell id="tTaFKLzFF_VWdB-BSlma-11" style="edgeStyle=orthogonalEdgeStyle;rounded=0;orthogonalLoop=1;jettySize=auto;html=1;exitX=0.5;exitY=1;exitDx=0;exitDy=0;" edge="1" parent="1" source="tTaFKLzFF_VWdB-BSlma-4" target="tTaFKLzFF_VWdB-BSlma-4">
          <mxGeometry relative="1" as="geometry" />
        </mxCell>
        <mxCell id="tTaFKLzFF_VWdB-BSlma-13" style="rounded=0;orthogonalLoop=1;jettySize=auto;html=1;exitX=0.8;exitY=0.8;exitDx=0;exitDy=0;exitPerimeter=0;" edge="1" parent="1" source="tTaFKLzFF_VWdB-BSlma-12">
          <mxGeometry relative="1" as="geometry">
            <mxPoint x="630" y="230" as="targetPoint" />
          </mxGeometry>
        </mxCell>
        <mxCell id="tTaFKLzFF_VWdB-BSlma-20" style="rounded=0;orthogonalLoop=1;jettySize=auto;html=1;exitX=0.31;exitY=0.8;exitDx=0;exitDy=0;exitPerimeter=0;" edge="1" parent="1" source="tTaFKLzFF_VWdB-BSlma-12">
          <mxGeometry relative="1" as="geometry">
            <mxPoint x="450" y="230" as="targetPoint" />
          </mxGeometry>
        </mxCell>
        <mxCell id="tTaFKLzFF_VWdB-BSlma-12" value="Merge" style="ellipse;shape=cloud;whiteSpace=wrap;html=1;" vertex="1" parent="1">
          <mxGeometry x="470" y="100" width="120" height="80" as="geometry" />
        </mxCell>
        <mxCell id="tTaFKLzFF_VWdB-BSlma-19" style="edgeStyle=orthogonalEdgeStyle;rounded=0;orthogonalLoop=1;jettySize=auto;html=1;exitX=1;exitY=0.5;exitDx=0;exitDy=0;entryX=0;entryY=0.5;entryDx=0;entryDy=0;" edge="1" parent="1" source="tTaFKLzFF_VWdB-BSlma-14" target="tTaFKLzFF_VWdB-BSlma-17">
          <mxGeometry relative="1" as="geometry" />
        </mxCell>
        <mxCell id="tTaFKLzFF_VWdB-BSlma-14" value="Bug fix" style="rounded=1;whiteSpace=wrap;html=1;strokeColor=#19FF00;" vertex="1" parent="1">
          <mxGeometry x="530" y="340" width="80" height="30" as="geometry" />
        </mxCell>
        <mxCell id="tTaFKLzFF_VWdB-BSlma-17" value="Version 3" style="rounded=1;whiteSpace=wrap;html=1;strokeColor=#3333FF;" vertex="1" parent="1">
          <mxGeometry x="650" y="220" width="80" height="30" as="geometry" />
        </mxCell>
        <mxCell id="tTaFKLzFF_VWdB-BSlma-22" style="rounded=0;orthogonalLoop=1;jettySize=auto;html=1;exitX=0.875;exitY=0.5;exitDx=0;exitDy=0;exitPerimeter=0;" edge="1" parent="1" source="tTaFKLzFF_VWdB-BSlma-21">
          <mxGeometry relative="1" as="geometry">
            <mxPoint x="510" y="360" as="targetPoint" />
          </mxGeometry>
        </mxCell>
        <mxCell id="tTaFKLzFF_VWdB-BSlma-21" value="Rebase" style="ellipse;shape=cloud;whiteSpace=wrap;html=1;" vertex="1" parent="1">
          <mxGeometry x="350" y="370" width="120" height="80" as="geometry" />
        </mxCell>
      </root>
    </mxGraphModel>
  </diagram>
</mxfile>
